<svg id="visual" viewBox="0 0 900 200" width="900" height="200" xmlns="http://www.w3.org/2000/svg" xmlns:xlink="http://www.w3.org/1999/xlink" version="1.1"><rect x="0" y="0" width="900" height="200" fill="#FFFFFF"></rect><path d="M0 31L64 31L64 17L129 17L129 17L193 17L193 21L257 21L257 18L321 18L321 12L386 12L386 26L450 26L450 20L514 20L514 35L579 35L579 21L643 21L643 19L707 19L707 34L771 34L771 26L836 26L836 30L900 30L900 26L900 201L900 201L836 201L836 201L771 201L771 201L707 201L707 201L643 201L643 201L579 201L579 201L514 201L514 201L450 201L450 201L386 201L386 201L321 201L321 201L257 201L257 201L193 201L193 201L129 201L129 201L64 201L64 201L0 201Z" fill="#ffe74c"></path><path d="M0 44L64 44L64 40L129 40L129 46L193 46L193 31L257 31L257 38L321 38L321 36L386 36L386 47L450 47L450 39L514 39L514 47L579 47L579 38L643 38L643 48L707 48L707 40L771 40L771 32L836 32L836 49L900 49L900 41L900 201L900 201L836 201L836 201L771 201L771 201L707 201L707 201L643 201L643 201L579 201L579 201L514 201L514 201L450 201L450 201L386 201L386 201L321 201L321 201L257 201L257 201L193 201L193 201L129 201L129 201L64 201L64 201L0 201Z" fill="#ffdc41"></path><path d="M0 49L64 49L64 61L129 61L129 60L193 60L193 47L257 47L257 51L321 51L321 50L386 50L386 58L450 58L450 59L514 59L514 58L579 58L579 58L643 58L643 53L707 53L707 42L771 42L771 47L836 47L836 55L900 55L900 62L900 201L900 201L836 201L836 201L771 201L771 201L707 201L707 201L643 201L643 201L579 201L579 201L514 201L514 201L450 201L450 201L386 201L386 201L321 201L321 201L257 201L257 201L193 201L193 201L129 201L129 201L64 201L64 201L0 201Z" fill="#ffd037"></path><path d="M0 57L64 57L64 56L129 56L129 59L193 59L193 72L257 72L257 70L321 70L321 73L386 73L386 70L450 70L450 76L514 76L514 58L579 58L579 65L643 65L643 66L707 66L707 56L771 56L771 59L836 59L836 67L900 67L900 69L900 201L900 201L836 201L836 201L771 201L771 201L707 201L707 201L643 201L643 201L579 201L579 201L514 201L514 201L450 201L450 201L386 201L386 201L321 201L321 201L257 201L257 201L193 201L193 201L129 201L129 201L64 201L64 201L0 201Z" fill="#ffc52e"></path><path d="M0 79L64 79L64 72L129 72L129 85L193 85L193 77L257 77L257 75L321 75L321 77L386 77L386 90L450 90L450 72L514 72L514 84L579 84L579 80L643 80L643 84L707 84L707 92L771 92L771 88L836 88L836 85L900 85L900 82L900 201L900 201L836 201L836 201L771 201L771 201L707 201L707 201L643 201L643 201L579 201L579 201L514 201L514 201L450 201L450 201L386 201L386 201L321 201L321 201L257 201L257 201L193 201L193 201L129 201L129 201L64 201L64 201L0 201Z" fill="#ffba26"></path><path d="M0 87L64 87L64 89L129 89L129 95L193 95L193 95L257 95L257 98L321 98L321 98L386 98L386 93L450 93L450 91L514 91L514 87L579 87L579 103L643 103L643 92L707 92L707 101L771 101L771 95L836 95L836 90L900 90L900 100L900 201L900 201L836 201L836 201L771 201L771 201L707 201L707 201L643 201L643 201L579 201L579 201L514 201L514 201L450 201L450 201L386 201L386 201L321 201L321 201L257 201L257 201L193 201L193 201L129 201L129 201L64 201L64 201L0 201Z" fill="#feae1f"></path><path d="M0 117L64 117L64 108L129 108L129 101L193 101L193 110L257 110L257 111L321 111L321 104L386 104L386 111L450 111L450 105L514 105L514 112L579 112L579 106L643 106L643 113L707 113L707 117L771 117L771 110L836 110L836 111L900 111L900 108L900 201L900 201L836 201L836 201L771 201L771 201L707 201L707 201L643 201L643 201L579 201L579 201L514 201L514 201L450 201L450 201L386 201L386 201L321 201L321 201L257 201L257 201L193 201L193 201L129 201L129 201L64 201L64 201L0 201Z" fill="#fda219"></path><path d="M0 116L64 116L64 134L129 134L129 116L193 116L193 133L257 133L257 127L321 127L321 120L386 120L386 122L450 122L450 117L514 117L514 125L579 125L579 118L643 118L643 119L707 119L707 123L771 123L771 132L836 132L836 116L900 116L900 131L900 201L900 201L836 201L836 201L771 201L771 201L707 201L707 201L643 201L643 201L579 201L579 201L514 201L514 201L450 201L450 201L386 201L386 201L321 201L321 201L257 201L257 201L193 201L193 201L129 201L129 201L64 201L64 201L0 201Z" fill="#fc9616"></path><path d="M0 138L64 138L64 148L129 148L129 132L193 132L193 133L257 133L257 133L321 133L321 143L386 143L386 145L450 145L450 142L514 142L514 141L579 141L579 133L643 133L643 138L707 138L707 139L771 139L771 134L836 134L836 139L900 139L900 145L900 201L900 201L836 201L836 201L771 201L771 201L707 201L707 201L643 201L643 201L579 201L579 201L514 201L514 201L450 201L450 201L386 201L386 201L321 201L321 201L257 201L257 201L193 201L193 201L129 201L129 201L64 201L64 201L0 201Z" fill="#fa8a14"></path><path d="M0 155L64 155L64 152L129 152L129 161L193 161L193 151L257 151L257 154L321 154L321 151L386 151L386 149L450 149L450 159L514 159L514 153L579 153L579 152L643 152L643 152L707 152L707 151L771 151L771 147L836 147L836 158L900 158L900 149L900 201L900 201L836 201L836 201L771 201L771 201L707 201L707 201L643 201L643 201L579 201L579 201L514 201L514 201L450 201L450 201L386 201L386 201L321 201L321 201L257 201L257 201L193 201L193 201L129 201L129 201L64 201L64 201L0 201Z" fill="#f87e15"></path><path d="M0 169L64 169L64 173L129 173L129 166L193 166L193 162L257 162L257 164L321 164L321 164L386 164L386 165L450 165L450 162L514 162L514 161L579 161L579 169L643 169L643 173L707 173L707 162L771 162L771 171L836 171L836 177L900 177L900 165L900 201L900 201L836 201L836 201L771 201L771 201L707 201L707 201L643 201L643 201L579 201L579 201L514 201L514 201L450 201L450 201L386 201L386 201L321 201L321 201L257 201L257 201L193 201L193 201L129 201L129 201L64 201L64 201L0 201Z" fill="#f57116"></path><path d="M0 179L64 179L64 177L129 177L129 186L193 186L193 189L257 189L257 186L321 186L321 188L386 188L386 187L450 187L450 187L514 187L514 180L579 180L579 183L643 183L643 190L707 190L707 177L771 177L771 180L836 180L836 178L900 178L900 179L900 201L900 201L836 201L836 201L771 201L771 201L707 201L707 201L643 201L643 201L579 201L579 201L514 201L514 201L450 201L450 201L386 201L386 201L321 201L321 201L257 201L257 201L193 201L193 201L129 201L129 201L64 201L64 201L0 201Z" fill="#f26419"></path></svg>