<svg id="visual" viewBox="0 0 900 600" width="900" height="600" xmlns="http://www.w3.org/2000/svg" xmlns:xlink="http://www.w3.org/1999/xlink" version="1.1"><path d="M0 73L15 81C30 89 60 105 90 110C120 115 150 109 180 108C210 107 240 111 270 111C300 111 330 107 360 102C390 97 420 91 450 90C480 89 510 93 540 95C570 97 600 97 630 105C660 113 690 129 720 130C750 131 780 117 810 108C840 99 870 95 885 93L900 91L900 0L885 0C870 0 840 0 810 0C780 0 750 0 720 0C690 0 660 0 630 0C600 0 570 0 540 0C510 0 480 0 450 0C420 0 390 0 360 0C330 0 300 0 270 0C240 0 210 0 180 0C150 0 120 0 90 0C60 0 30 0 15 0L0 0Z" fill="#f26419"></path><path d="M0 97L15 104C30 111 60 125 90 132C120 139 150 139 180 138C210 137 240 135 270 135C300 135 330 137 360 135C390 133 420 127 450 126C480 125 510 129 540 131C570 133 600 133 630 139C660 145 690 157 720 155C750 153 780 137 810 128C840 119 870 117 885 116L900 115L900 89L885 91C870 93 840 97 810 106C780 115 750 129 720 128C690 127 660 111 630 103C600 95 570 95 540 93C510 91 480 87 450 88C420 89 390 95 360 100C330 105 300 109 270 109C240 109 210 105 180 106C150 107 120 113 90 108C60 103 30 87 15 79L0 71Z" fill="#f98414"></path><path d="M0 127L15 133C30 139 60 151 90 158C120 165 150 167 180 164C210 161 240 153 270 153C300 153 330 161 360 162C390 163 420 157 450 153C480 149 510 147 540 149C570 151 600 157 630 164C660 171 690 179 720 175C750 171 780 155 810 148C840 141 870 143 885 144L900 145L900 113L885 114C870 115 840 117 810 126C780 135 750 151 720 153C690 155 660 143 630 137C600 131 570 131 540 129C510 127 480 123 450 124C420 125 390 131 360 133C330 135 300 133 270 133C240 133 210 135 180 136C150 137 120 137 90 130C60 123 30 109 15 102L0 95Z" fill="#fda219"></path><path d="M0 169L15 176C30 183 60 197 90 201C120 205 150 199 180 197C210 195 240 197 270 198C300 199 330 199 360 198C390 197 420 195 450 195C480 195 510 197 540 197C570 197 600 195 630 197C660 199 690 205 720 205C750 205 780 199 810 193C840 187 870 181 885 178L900 175L900 143L885 142C870 141 840 139 810 146C780 153 750 169 720 173C690 177 660 169 630 162C600 155 570 149 540 147C510 145 480 147 450 151C420 155 390 161 360 160C330 159 300 151 270 151C240 151 210 159 180 162C150 165 120 163 90 156C60 149 30 137 15 131L0 125Z" fill="#ffbf2a"></path><path d="M0 217L15 223C30 229 60 241 90 242C120 243 150 233 180 233C210 233 240 243 270 249C300 255 330 257 360 255C390 253 420 247 450 243C480 239 510 237 540 235C570 233 600 231 630 234C660 237 690 245 720 244C750 243 780 233 810 231C840 229 870 235 885 238L900 241L900 173L885 176C870 179 840 185 810 191C780 197 750 203 720 203C690 203 660 197 630 195C600 193 570 195 540 195C510 195 480 193 450 193C420 193 390 195 360 196C330 197 300 197 270 196C240 195 210 193 180 195C150 197 120 203 90 199C60 195 30 181 15 174L0 167Z" fill="#ffdc41"></path><path d="M0 295L15 295C30 295 60 295 90 292C120 289 150 283 180 290C210 297 240 317 270 329C300 341 330 345 360 340C390 335 420 321 450 313C480 305 510 303 540 307C570 311 600 321 630 325C660 329 690 327 720 322C750 317 780 309 810 311C840 313 870 325 885 331L900 337L900 239L885 236C870 233 840 227 810 229C780 231 750 241 720 242C690 243 660 235 630 232C600 229 570 231 540 233C510 235 480 237 450 241C420 245 390 251 360 253C330 255 300 253 270 247C240 241 210 231 180 231C150 231 120 241 90 240C60 239 30 227 15 221L0 215Z" fill="#ffe74c"></path><path d="M0 331L15 332C30 333 60 335 90 331C120 327 150 317 180 324C210 331 240 355 270 366C300 377 330 375 360 369C390 363 420 353 450 347C480 341 510 339 540 342C570 345 600 353 630 357C660 361 690 361 720 356C750 351 780 341 810 340C840 339 870 347 885 351L900 355L900 335L885 329C870 323 840 311 810 309C780 307 750 315 720 320C690 325 660 327 630 323C600 319 570 309 540 305C510 301 480 303 450 311C420 319 390 333 360 338C330 343 300 339 270 327C240 315 210 295 180 288C150 281 120 287 90 290C60 293 30 293 15 293L0 293Z" fill="#ffe74c"></path><path d="M0 463L15 460C30 457 60 451 90 454C120 457 150 469 180 475C210 481 240 481 270 480C300 479 330 477 360 475C390 473 420 471 450 473C480 475 510 481 540 484C570 487 600 487 630 481C660 475 690 463 720 461C750 459 780 467 810 469C840 471 870 467 885 465L900 463L900 353L885 349C870 345 840 337 810 338C780 339 750 349 720 354C690 359 660 359 630 355C600 351 570 343 540 340C510 337 480 339 450 345C420 351 390 361 360 367C330 373 300 375 270 364C240 353 210 329 180 322C150 315 120 325 90 329C60 333 30 331 15 330L0 329Z" fill="#ffdc41"></path><path d="M0 487L15 484C30 481 60 475 90 478C120 481 150 493 180 498C210 503 240 501 270 499C300 497 330 495 360 493C390 491 420 489 450 492C480 495 510 503 540 507C570 511 600 511 630 506C660 501 690 491 720 488C750 485 780 489 810 492C840 495 870 497 885 498L900 499L900 461L885 463C870 465 840 469 810 467C780 465 750 457 720 459C690 461 660 473 630 479C600 485 570 485 540 482C510 479 480 473 450 471C420 469 390 471 360 473C330 475 300 477 270 478C240 479 210 479 180 473C150 467 120 455 90 452C60 449 30 455 15 458L0 461Z" fill="#ffbf2a"></path><path d="M0 505L15 504C30 503 60 501 90 504C120 507 150 515 180 518C210 521 240 519 270 519C300 519 330 521 360 520C390 519 420 515 450 517C480 519 510 527 540 532C570 537 600 539 630 534C660 529 690 517 720 513C750 509 780 513 810 514C840 515 870 513 885 512L900 511L900 497L885 496C870 495 840 493 810 490C780 487 750 483 720 486C690 489 660 499 630 504C600 509 570 509 540 505C510 501 480 493 450 490C420 487 390 489 360 491C330 493 300 495 270 497C240 499 210 501 180 496C150 491 120 479 90 476C60 473 30 479 15 482L0 485Z" fill="#fda219"></path><path d="M0 571L15 569C30 567 60 563 90 563C120 563 150 567 180 567C210 567 240 563 270 564C300 565 330 571 360 574C390 577 420 577 450 575C480 573 510 569 540 569C570 569 600 573 630 571C660 569 690 561 720 560C750 559 780 565 810 568C840 571 870 571 885 571L900 571L900 509L885 510C870 511 840 513 810 512C780 511 750 507 720 511C690 515 660 527 630 532C600 537 570 535 540 530C510 525 480 517 450 515C420 513 390 517 360 518C330 519 300 517 270 517C240 517 210 519 180 516C150 513 120 505 90 502C60 499 30 501 15 502L0 503Z" fill="#f98414"></path><path d="M0 601L15 601C30 601 60 601 90 601C120 601 150 601 180 601C210 601 240 601 270 601C300 601 330 601 360 601C390 601 420 601 450 601C480 601 510 601 540 601C570 601 600 601 630 601C660 601 690 601 720 601C750 601 780 601 810 601C840 601 870 601 885 601L900 601L900 569L885 569C870 569 840 569 810 566C780 563 750 557 720 558C690 559 660 567 630 569C600 571 570 567 540 567C510 567 480 571 450 573C420 575 390 575 360 572C330 569 300 563 270 562C240 561 210 565 180 565C150 565 120 561 90 561C60 561 30 565 15 567L0 569Z" fill="#f26419"></path></svg>