<svg id="visual" viewBox="0 0 960 200" width="960" height="200" xmlns="http://www.w3.org/2000/svg" xmlns:xlink="http://www.w3.org/1999/xlink" version="1.1"><path d="M0 70L42 70L42 69L83 69L83 72L125 72L125 68L167 68L167 70L209 70L209 68L250 68L250 68L292 68L292 70L334 70L334 69L376 69L376 67L417 67L417 68L459 68L459 67L501 67L501 72L543 72L543 68L584 68L584 67L626 67L626 70L668 70L668 70L710 70L710 70L751 70L751 68L793 68L793 71L835 71L835 67L877 67L877 70L918 70L918 67L960 67L960 71L960 201L960 201L918 201L918 201L877 201L877 201L835 201L835 201L793 201L793 201L751 201L751 201L710 201L710 201L668 201L668 201L626 201L626 201L584 201L584 201L543 201L543 201L501 201L501 201L459 201L459 201L417 201L417 201L376 201L376 201L334 201L334 201L292 201L292 201L250 201L250 201L209 201L209 201L167 201L167 201L125 201L125 201L83 201L83 201L42 201L42 201L0 201Z" fill="#ffe74c"></path><path d="M0 78L42 78L42 83L83 83L83 80L125 80L125 78L167 78L167 80L209 80L209 81L250 81L250 79L292 79L292 78L334 78L334 78L376 78L376 78L417 78L417 79L459 79L459 80L501 80L501 78L543 78L543 80L584 80L584 81L626 81L626 81L668 81L668 80L710 80L710 83L751 83L751 80L793 80L793 82L835 82L835 83L877 83L877 79L918 79L918 81L960 81L960 83L960 201L960 201L918 201L918 201L877 201L877 201L835 201L835 201L793 201L793 201L751 201L751 201L710 201L710 201L668 201L668 201L626 201L626 201L584 201L584 201L543 201L543 201L501 201L501 201L459 201L459 201L417 201L417 201L376 201L376 201L334 201L334 201L292 201L292 201L250 201L250 201L209 201L209 201L167 201L167 201L125 201L125 201L83 201L83 201L42 201L42 201L0 201Z" fill="#ffdc41"></path><path d="M0 91L42 91L42 90L83 90L83 91L125 91L125 93L167 93L167 90L209 90L209 92L250 92L250 93L292 93L292 92L334 92L334 94L376 94L376 88L417 88L417 91L459 91L459 89L501 89L501 89L543 89L543 94L584 94L584 92L626 92L626 89L668 89L668 93L710 93L710 93L751 93L751 89L793 89L793 91L835 91L835 91L877 91L877 89L918 89L918 94L960 94L960 90L960 201L960 201L918 201L918 201L877 201L877 201L835 201L835 201L793 201L793 201L751 201L751 201L710 201L710 201L668 201L668 201L626 201L626 201L584 201L584 201L543 201L543 201L501 201L501 201L459 201L459 201L417 201L417 201L376 201L376 201L334 201L334 201L292 201L292 201L250 201L250 201L209 201L209 201L167 201L167 201L125 201L125 201L83 201L83 201L42 201L42 201L0 201Z" fill="#ffd037"></path><path d="M0 105L42 105L42 99L83 99L83 102L125 102L125 105L167 105L167 101L209 101L209 100L250 100L250 100L292 100L292 101L334 101L334 102L376 102L376 100L417 100L417 99L459 99L459 104L501 104L501 102L543 102L543 105L584 105L584 100L626 100L626 102L668 102L668 99L710 99L710 101L751 101L751 100L793 100L793 104L835 104L835 103L877 103L877 99L918 99L918 103L960 103L960 99L960 201L960 201L918 201L918 201L877 201L877 201L835 201L835 201L793 201L793 201L751 201L751 201L710 201L710 201L668 201L668 201L626 201L626 201L584 201L584 201L543 201L543 201L501 201L501 201L459 201L459 201L417 201L417 201L376 201L376 201L334 201L334 201L292 201L292 201L250 201L250 201L209 201L209 201L167 201L167 201L125 201L125 201L83 201L83 201L42 201L42 201L0 201Z" fill="#ffc52e"></path><path d="M0 112L42 112L42 116L83 116L83 115L125 115L125 112L167 112L167 112L209 112L209 114L250 114L250 111L292 111L292 114L334 114L334 110L376 110L376 110L417 110L417 114L459 114L459 114L501 114L501 114L543 114L543 115L584 115L584 112L626 112L626 112L668 112L668 112L710 112L710 112L751 112L751 114L793 114L793 113L835 113L835 114L877 114L877 116L918 116L918 112L960 112L960 111L960 201L960 201L918 201L918 201L877 201L877 201L835 201L835 201L793 201L793 201L751 201L751 201L710 201L710 201L668 201L668 201L626 201L626 201L584 201L584 201L543 201L543 201L501 201L501 201L459 201L459 201L417 201L417 201L376 201L376 201L334 201L334 201L292 201L292 201L250 201L250 201L209 201L209 201L167 201L167 201L125 201L125 201L83 201L83 201L42 201L42 201L0 201Z" fill="#ffba26"></path><path d="M0 122L42 122L42 124L83 124L83 124L125 124L125 122L167 122L167 122L209 122L209 126L250 126L250 121L292 121L292 125L334 125L334 122L376 122L376 125L417 125L417 120L459 120L459 123L501 123L501 121L543 121L543 125L584 125L584 121L626 121L626 125L668 125L668 126L710 126L710 127L751 127L751 126L793 126L793 123L835 123L835 122L877 122L877 124L918 124L918 126L960 126L960 122L960 201L960 201L918 201L918 201L877 201L877 201L835 201L835 201L793 201L793 201L751 201L751 201L710 201L710 201L668 201L668 201L626 201L626 201L584 201L584 201L543 201L543 201L501 201L501 201L459 201L459 201L417 201L417 201L376 201L376 201L334 201L334 201L292 201L292 201L250 201L250 201L209 201L209 201L167 201L167 201L125 201L125 201L83 201L83 201L42 201L42 201L0 201Z" fill="#feae1f"></path><path d="M0 134L42 134L42 137L83 137L83 132L125 132L125 131L167 131L167 133L209 133L209 132L250 132L250 135L292 135L292 136L334 136L334 137L376 137L376 132L417 132L417 137L459 137L459 133L501 133L501 134L543 134L543 136L584 136L584 137L626 137L626 131L668 131L668 132L710 132L710 134L751 134L751 136L793 136L793 133L835 133L835 137L877 137L877 137L918 137L918 134L960 134L960 138L960 201L960 201L918 201L918 201L877 201L877 201L835 201L835 201L793 201L793 201L751 201L751 201L710 201L710 201L668 201L668 201L626 201L626 201L584 201L584 201L543 201L543 201L501 201L501 201L459 201L459 201L417 201L417 201L376 201L376 201L334 201L334 201L292 201L292 201L250 201L250 201L209 201L209 201L167 201L167 201L125 201L125 201L83 201L83 201L42 201L42 201L0 201Z" fill="#fda219"></path><path d="M0 147L42 147L42 147L83 147L83 147L125 147L125 144L167 144L167 146L209 146L209 148L250 148L250 143L292 143L292 147L334 147L334 144L376 144L376 147L417 147L417 143L459 143L459 147L501 147L501 143L543 143L543 143L584 143L584 145L626 145L626 144L668 144L668 144L710 144L710 144L751 144L751 145L793 145L793 142L835 142L835 146L877 146L877 146L918 146L918 145L960 145L960 146L960 201L960 201L918 201L918 201L877 201L877 201L835 201L835 201L793 201L793 201L751 201L751 201L710 201L710 201L668 201L668 201L626 201L626 201L584 201L584 201L543 201L543 201L501 201L501 201L459 201L459 201L417 201L417 201L376 201L376 201L334 201L334 201L292 201L292 201L250 201L250 201L209 201L209 201L167 201L167 201L125 201L125 201L83 201L83 201L42 201L42 201L0 201Z" fill="#fc9616"></path><path d="M0 159L42 159L42 153L83 153L83 155L125 155L125 155L167 155L167 155L209 155L209 156L250 156L250 154L292 154L292 154L334 154L334 159L376 159L376 158L417 158L417 154L459 154L459 156L501 156L501 155L543 155L543 157L584 157L584 158L626 158L626 157L668 157L668 155L710 155L710 158L751 158L751 157L793 157L793 159L835 159L835 158L877 158L877 157L918 157L918 153L960 153L960 156L960 201L960 201L918 201L918 201L877 201L877 201L835 201L835 201L793 201L793 201L751 201L751 201L710 201L710 201L668 201L668 201L626 201L626 201L584 201L584 201L543 201L543 201L501 201L501 201L459 201L459 201L417 201L417 201L376 201L376 201L334 201L334 201L292 201L292 201L250 201L250 201L209 201L209 201L167 201L167 201L125 201L125 201L83 201L83 201L42 201L42 201L0 201Z" fill="#fa8a14"></path><path d="M0 164L42 164L42 164L83 164L83 167L125 167L125 168L167 168L167 164L209 164L209 166L250 166L250 168L292 168L292 170L334 170L334 169L376 169L376 167L417 167L417 169L459 169L459 164L501 164L501 169L543 169L543 164L584 164L584 168L626 168L626 166L668 166L668 166L710 166L710 168L751 168L751 169L793 169L793 165L835 165L835 168L877 168L877 165L918 165L918 165L960 165L960 165L960 201L960 201L918 201L918 201L877 201L877 201L835 201L835 201L793 201L793 201L751 201L751 201L710 201L710 201L668 201L668 201L626 201L626 201L584 201L584 201L543 201L543 201L501 201L501 201L459 201L459 201L417 201L417 201L376 201L376 201L334 201L334 201L292 201L292 201L250 201L250 201L209 201L209 201L167 201L167 201L125 201L125 201L83 201L83 201L42 201L42 201L0 201Z" fill="#f87e15"></path><path d="M0 176L42 176L42 179L83 179L83 175L125 175L125 179L167 179L167 177L209 177L209 179L250 179L250 180L292 180L292 178L334 178L334 179L376 179L376 174L417 174L417 177L459 177L459 176L501 176L501 179L543 179L543 179L584 179L584 180L626 180L626 176L668 176L668 175L710 175L710 180L751 180L751 180L793 180L793 178L835 178L835 178L877 178L877 177L918 177L918 177L960 177L960 177L960 201L960 201L918 201L918 201L877 201L877 201L835 201L835 201L793 201L793 201L751 201L751 201L710 201L710 201L668 201L668 201L626 201L626 201L584 201L584 201L543 201L543 201L501 201L501 201L459 201L459 201L417 201L417 201L376 201L376 201L334 201L334 201L292 201L292 201L250 201L250 201L209 201L209 201L167 201L167 201L125 201L125 201L83 201L83 201L42 201L42 201L0 201Z" fill="#f57116"></path><path d="M0 191L42 191L42 187L83 187L83 188L125 188L125 186L167 186L167 190L209 190L209 186L250 186L250 189L292 189L292 190L334 190L334 189L376 189L376 191L417 191L417 188L459 188L459 190L501 190L501 190L543 190L543 185L584 185L584 188L626 188L626 189L668 189L668 189L710 189L710 186L751 186L751 187L793 187L793 186L835 186L835 187L877 187L877 191L918 191L918 188L960 188L960 185L960 201L960 201L918 201L918 201L877 201L877 201L835 201L835 201L793 201L793 201L751 201L751 201L710 201L710 201L668 201L668 201L626 201L626 201L584 201L584 201L543 201L543 201L501 201L501 201L459 201L459 201L417 201L417 201L376 201L376 201L334 201L334 201L292 201L292 201L250 201L250 201L209 201L209 201L167 201L167 201L125 201L125 201L83 201L83 201L42 201L42 201L0 201Z" fill="#f26419"></path></svg>