<svg id="visual" viewBox="0 0 450 225" width="450" height="225" xmlns="http://www.w3.org/2000/svg" xmlns:xlink="http://www.w3.org/1999/xlink" version="1.1"><g stroke-width="1" stroke-linejoin="bevel"><path d="M229.5 120L209.5 117L216 124.5Z" fill="#f7492f" stroke="#f7492f"></path><path d="M229.5 120L236 103L209.5 117Z" fill="#f45c21" stroke="#f45c21"></path><path d="M229.5 120L244 113L236 103Z" fill="#f74432" stroke="#f74432"></path><path d="M209.5 117L199.5 127.5L216 124.5Z" fill="#f7492f" stroke="#f7492f"></path><path d="M244 113L246.5 99.5L236 103Z" fill="#f83f36" stroke="#f83f36"></path><path d="M244 113L251 98L246.5 99.5Z" fill="#f3601d" stroke="#f3601d"></path><path d="M231.5 63L236 103L246.5 99.5Z" fill="#f55329" stroke="#f55329"></path><path d="M231.5 63L202.5 83.5L236 103Z" fill="#f83939" stroke="#f83939"></path><path d="M236 103L202.5 83.5L209.5 117Z" fill="#f55329" stroke="#f55329"></path><path d="M181.5 106L184 129.5L199.5 127.5Z" fill="#f45c21" stroke="#f45c21"></path><path d="M181.5 106L199.5 127.5L209.5 117Z" fill="#f7492f" stroke="#f7492f"></path><path d="M202.5 83.5L181.5 106L209.5 117Z" fill="#f83939" stroke="#f83939"></path><path d="M244 113L256.5 98L251 98Z" fill="#f83f36" stroke="#f83f36"></path><path d="M251 98L231.5 63L246.5 99.5Z" fill="#f7492f" stroke="#f7492f"></path><path d="M196 158.5L231 156.5L216 124.5Z" fill="#f8333c" stroke="#f8333c"></path><path d="M216 124.5L231 156.5L229.5 120Z" fill="#f26419" stroke="#f26419"></path><path d="M229.5 120L257 152L244 113Z" fill="#f3601d" stroke="#f3601d"></path><path d="M244 113L270 110.5L256.5 98Z" fill="#f64e2c" stroke="#f64e2c"></path><path d="M196 158.5L216 124.5L199.5 127.5Z" fill="#f45c21" stroke="#f45c21"></path><path d="M202.5 83.5L180 97L181.5 106Z" fill="#f55725" stroke="#f55725"></path><path d="M155.5 116.5L172.5 135.5L184 129.5Z" fill="#f83939" stroke="#f83939"></path><path d="M257 152L270 110.5L244 113Z" fill="#f26419" stroke="#f26419"></path><path d="M184 129.5L196 158.5L199.5 127.5Z" fill="#f7492f" stroke="#f7492f"></path><path d="M229.5 170L234 164L231 156.5Z" fill="#f55329" stroke="#f55329"></path><path d="M231 156.5L257 152L229.5 120Z" fill="#f83f36" stroke="#f83f36"></path><path d="M164.5 140L172.5 135.5L151 131Z" fill="#f83f36" stroke="#f83f36"></path><path d="M184 129.5L172.5 135.5L196 158.5Z" fill="#f74432" stroke="#f74432"></path><path d="M268.5 71.5L251 98L256.5 98Z" fill="#f55725" stroke="#f55725"></path><path d="M268.5 71.5L231.5 63L251 98Z" fill="#f83939" stroke="#f83939"></path><path d="M175.5 70.5L172.5 91L180 97Z" fill="#f3601d" stroke="#f3601d"></path><path d="M234 164L257 152L231 156.5Z" fill="#f7492f" stroke="#f7492f"></path><path d="M175.5 70.5L180 97L202.5 83.5Z" fill="#f83939" stroke="#f83939"></path><path d="M180 97L172.5 91L181.5 106Z" fill="#f7492f" stroke="#f7492f"></path><path d="M196 158.5L215.5 167.5L231 156.5Z" fill="#f55329" stroke="#f55329"></path><path d="M215.5 167.5L229.5 170L231 156.5Z" fill="#f45c21" stroke="#f45c21"></path><path d="M234 164L266.5 162.5L257 152Z" fill="#f26419" stroke="#f26419"></path><path d="M155.5 116.5L184 129.5L181.5 106Z" fill="#f64e2c" stroke="#f64e2c"></path><path d="M172.5 135.5L162 146L196 158.5Z" fill="#f26419" stroke="#f26419"></path><path d="M188 60.5L175.5 70.5L202.5 83.5Z" fill="#f3601d" stroke="#f3601d"></path><path d="M155 105.5L155.5 116.5L181.5 106Z" fill="#f55329" stroke="#f55329"></path><path d="M194.5 57L188 60.5L202.5 83.5Z" fill="#f55329" stroke="#f55329"></path><path d="M231.5 63L194.5 57L202.5 83.5Z" fill="#f26419" stroke="#f26419"></path><path d="M270 110.5L268.5 71.5L256.5 98Z" fill="#f55725" stroke="#f55725"></path><path d="M155 105.5L181.5 106L172.5 91Z" fill="#f8333c" stroke="#f8333c"></path><path d="M144 47.5L155 105.5L172.5 91Z" fill="#f45c21" stroke="#f45c21"></path><path d="M151 131L162 146L164.5 140Z" fill="#f83f36" stroke="#f83f36"></path><path d="M164.5 140L162 146L172.5 135.5Z" fill="#f74432" stroke="#f74432"></path><path d="M196 158.5L214.5 199L215.5 167.5Z" fill="#f8333c" stroke="#f8333c"></path><path d="M253.5 197.5L266.5 162.5L234 164Z" fill="#f74432" stroke="#f74432"></path><path d="M257 152L276 158L270 110.5Z" fill="#f26419" stroke="#f26419"></path><path d="M266.5 162.5L271.5 159.5L257 152Z" fill="#f45c21" stroke="#f45c21"></path><path d="M268.5 71.5L239 47.5L231.5 63Z" fill="#f83f36" stroke="#f83f36"></path><path d="M231.5 63L216 43L194.5 57Z" fill="#f55725" stroke="#f55725"></path><path d="M289 177.5L276 158L271.5 159.5Z" fill="#f83f36" stroke="#f83f36"></path><path d="M271.5 159.5L276 158L257 152Z" fill="#f64e2c" stroke="#f64e2c"></path><path d="M292.5 63L272 63.5L268.5 71.5Z" fill="#f55725" stroke="#f55725"></path><path d="M122 100L151 131L155.5 116.5Z" fill="#f55725" stroke="#f55725"></path><path d="M155.5 116.5L151 131L172.5 135.5Z" fill="#f83939" stroke="#f83939"></path><path d="M239 47.5L216 43L231.5 63Z" fill="#f83f36" stroke="#f83f36"></path><path d="M194.5 57L169.5 39.5L188 60.5Z" fill="#f55329" stroke="#f55329"></path><path d="M307.5 101L268.5 71.5L270 110.5Z" fill="#f55329" stroke="#f55329"></path><path d="M268.5 71.5L272 63.5L239 47.5Z" fill="#f7492f" stroke="#f7492f"></path><path d="M170.5 180.5L173 174L158.5 187Z" fill="#f26419" stroke="#f26419"></path><path d="M162 146L173 174L196 158.5Z" fill="#f83939" stroke="#f83939"></path><path d="M215.5 167.5L214.5 199L229.5 170Z" fill="#f83939" stroke="#f83939"></path><path d="M289 177.5L294 151L276 158Z" fill="#f8333c" stroke="#f8333c"></path><path d="M276 158L294 151L270 110.5Z" fill="#f45c21" stroke="#f45c21"></path><path d="M158.5 187L173 174L162 146Z" fill="#f3601d" stroke="#f3601d"></path><path d="M173 174L214.5 199L196 158.5Z" fill="#f7492f" stroke="#f7492f"></path><path d="M294 151L302.5 127L270 110.5Z" fill="#f83939" stroke="#f83939"></path><path d="M175 197.5L214.5 199L173 174Z" fill="#f83939" stroke="#f83939"></path><path d="M229.5 170L253.5 197.5L234 164Z" fill="#f3601d" stroke="#f3601d"></path><path d="M266.5 162.5L289 177.5L271.5 159.5Z" fill="#f55329" stroke="#f55329"></path><path d="M302.5 127L307.5 101L270 110.5Z" fill="#f7492f" stroke="#f7492f"></path><path d="M307.5 101L292.5 63L268.5 71.5Z" fill="#f83f36" stroke="#f83f36"></path><path d="M272 63.5L259 26L239 47.5Z" fill="#f8333c" stroke="#f8333c"></path><path d="M214.5 199L253.5 197.5L229.5 170Z" fill="#f55725" stroke="#f55725"></path><path d="M171 30L169.5 39.5L194.5 57Z" fill="#f64e2c" stroke="#f64e2c"></path><path d="M188 60.5L169.5 39.5L175.5 70.5Z" fill="#f3601d" stroke="#f3601d"></path><path d="M144 47.5L122 100L155 105.5Z" fill="#f7492f" stroke="#f7492f"></path><path d="M292.5 63L285.5 49.5L272 63.5Z" fill="#f55725" stroke="#f55725"></path><path d="M233.5 10.5L226 10.5L216 43Z" fill="#f83939" stroke="#f83939"></path><path d="M294 151L311.5 129.5L302.5 127Z" fill="#f64e2c" stroke="#f64e2c"></path><path d="M302.5 127L317 109L307.5 101Z" fill="#f8333c" stroke="#f8333c"></path><path d="M253.5 197.5L289 177.5L266.5 162.5Z" fill="#f26419" stroke="#f26419"></path><path d="M294 151L307 163L311.5 129.5Z" fill="#f7492f" stroke="#f7492f"></path><path d="M158.5 187L175 197.5L170.5 180.5Z" fill="#f55725" stroke="#f55725"></path><path d="M170.5 180.5L175 197.5L173 174Z" fill="#f64e2c" stroke="#f64e2c"></path><path d="M130 164L158.5 187L162 146Z" fill="#f55725" stroke="#f55725"></path><path d="M169.5 39.5L156.5 42L175.5 70.5Z" fill="#f8333c" stroke="#f8333c"></path><path d="M155 105.5L122 100L155.5 116.5Z" fill="#f8333c" stroke="#f8333c"></path><path d="M285.5 49.5L259 26L272 63.5Z" fill="#f74432" stroke="#f74432"></path><path d="M216 43L171 30L194.5 57Z" fill="#f74432" stroke="#f74432"></path><path d="M311.5 129.5L317 109L302.5 127Z" fill="#f55329" stroke="#f55329"></path><path d="M307.5 101L322 53.5L292.5 63Z" fill="#f83939" stroke="#f83939"></path><path d="M322 53.5L296 30.5L285.5 49.5Z" fill="#f64e2c" stroke="#f64e2c"></path><path d="M197.5 0L171 30L216 43Z" fill="#f3601d" stroke="#f3601d"></path><path d="M169.5 39.5L171 30L156.5 42Z" fill="#f8333c" stroke="#f8333c"></path><path d="M144 47.5L172.5 91L175.5 70.5Z" fill="#f55329" stroke="#f55329"></path><path d="M151 131L130 164L162 146Z" fill="#f55329" stroke="#f55329"></path><path d="M289 177.5L307 163L294 151Z" fill="#f55329" stroke="#f55329"></path><path d="M323.5 108L319.5 105.5L317 109Z" fill="#f7492f" stroke="#f7492f"></path><path d="M323.5 108L317 109L311.5 129.5Z" fill="#f7492f" stroke="#f7492f"></path><path d="M317 109L319.5 105.5L307.5 101Z" fill="#f8333c" stroke="#f8333c"></path><path d="M289 177.5L297 178.5L307 163Z" fill="#f55725" stroke="#f55725"></path><path d="M301.5 187.5L297 178.5L289 177.5Z" fill="#f26419" stroke="#f26419"></path><path d="M136 45L144 47.5L156.5 42Z" fill="#f26419" stroke="#f26419"></path><path d="M156.5 42L144 47.5L175.5 70.5Z" fill="#f3601d" stroke="#f3601d"></path><path d="M101 139L130 164L151 131Z" fill="#f8333c" stroke="#f8333c"></path><path d="M327 108.5L323.5 108L311.5 129.5Z" fill="#f64e2c" stroke="#f64e2c"></path><path d="M341.5 81.5L322 53.5L307.5 101Z" fill="#f83939" stroke="#f83939"></path><path d="M233.5 10.5L216 43L239 47.5Z" fill="#f26419" stroke="#f26419"></path><path d="M259 26L233.5 10.5L239 47.5Z" fill="#f3601d" stroke="#f3601d"></path><path d="M211 225L230 220.5L214.5 199Z" fill="#f3601d" stroke="#f3601d"></path><path d="M214.5 199L230 220.5L253.5 197.5Z" fill="#f7492f" stroke="#f7492f"></path><path d="M289.5 200L301.5 187.5L289 177.5Z" fill="#f55329" stroke="#f55329"></path><path d="M340.5 119L327 108.5L311.5 129.5Z" fill="#f55329" stroke="#f55329"></path><path d="M323.5 108L327 108.5L319.5 105.5Z" fill="#f8333c" stroke="#f8333c"></path><path d="M160 17.5L136 45L156.5 42Z" fill="#f3601d" stroke="#f3601d"></path><path d="M144 47.5L136 45L122 100Z" fill="#f83939" stroke="#f83939"></path><path d="M230 220.5L253 218.5L253.5 197.5Z" fill="#f55725" stroke="#f55725"></path><path d="M297 178.5L323.5 174L307 163Z" fill="#f55725" stroke="#f55725"></path><path d="M307 163L323.5 174L311.5 129.5Z" fill="#f45c21" stroke="#f45c21"></path><path d="M289.5 200L289 177.5L253.5 197.5Z" fill="#f64e2c" stroke="#f64e2c"></path><path d="M268 225L289.5 200L253.5 197.5Z" fill="#f55725" stroke="#f55725"></path><path d="M112.5 171L125 171.5L130 164Z" fill="#f83939" stroke="#f83939"></path><path d="M130 164L125 171.5L158.5 187Z" fill="#f8333c" stroke="#f8333c"></path><path d="M184.5 221.5L214.5 199L175 197.5Z" fill="#f3601d" stroke="#f3601d"></path><path d="M199.5 225L214.5 199L184.5 221.5Z" fill="#f83f36" stroke="#f83f36"></path><path d="M199.5 225L211 225L214.5 199Z" fill="#f7492f" stroke="#f7492f"></path><path d="M230 220.5L234.5 225L253 218.5Z" fill="#f83f36" stroke="#f83f36"></path><path d="M211 225L234.5 225L230 220.5Z" fill="#f83939" stroke="#f83939"></path><path d="M221 0L214.5 2.5L226 10.5Z" fill="#f83939" stroke="#f83939"></path><path d="M226 10.5L214.5 2.5L216 43Z" fill="#f83939" stroke="#f83939"></path><path d="M171 30L160 17.5L156.5 42Z" fill="#f45c21" stroke="#f45c21"></path><path d="M184.5 221.5L175 197.5L178 225Z" fill="#f55725" stroke="#f55725"></path><path d="M178 225L175 197.5L169.5 225Z" fill="#f3601d" stroke="#f3601d"></path><path d="M285.5 49.5L296 30.5L259 26Z" fill="#f45c21" stroke="#f45c21"></path><path d="M260 0L233.5 0L233.5 10.5Z" fill="#f83f36" stroke="#f83f36"></path><path d="M233.5 0L221 0L226 10.5Z" fill="#f3601d" stroke="#f3601d"></path><path d="M322 53.5L285.5 49.5L292.5 63Z" fill="#f74432" stroke="#f74432"></path><path d="M175.5 0L160 17.5L171 30Z" fill="#f83939" stroke="#f83939"></path><path d="M233.5 0L226 10.5L233.5 10.5Z" fill="#f7492f" stroke="#f7492f"></path><path d="M214.5 2.5L197.5 0L216 43Z" fill="#f7492f" stroke="#f7492f"></path><path d="M103 67.5L106.5 96.5L122 100Z" fill="#f26419" stroke="#f26419"></path><path d="M98.5 159.5L112.5 171L130 164Z" fill="#f8333c" stroke="#f8333c"></path><path d="M260 0L233.5 10.5L259 26Z" fill="#f7492f" stroke="#f7492f"></path><path d="M221 0L197.5 0L214.5 2.5Z" fill="#f83939" stroke="#f83939"></path><path d="M296 30.5L275.5 11.5L259 26Z" fill="#f64e2c" stroke="#f64e2c"></path><path d="M197.5 0L190 0L171 30Z" fill="#f74432" stroke="#f74432"></path><path d="M169.5 225L175 197.5L145 225Z" fill="#f55725" stroke="#f55725"></path><path d="M184.5 221.5L178 225L199.5 225Z" fill="#f45c21" stroke="#f45c21"></path><path d="M341.5 81.5L307.5 101L319.5 105.5Z" fill="#f64e2c" stroke="#f64e2c"></path><path d="M312.5 0L276 1.5L275.5 11.5Z" fill="#f8333c" stroke="#f8333c"></path><path d="M310 203.5L323.5 174L301.5 187.5Z" fill="#f55329" stroke="#f55329"></path><path d="M301.5 187.5L323.5 174L297 178.5Z" fill="#f83f36" stroke="#f83f36"></path><path d="M341.5 173.5L340.5 119L311.5 129.5Z" fill="#f55725" stroke="#f55725"></path><path d="M327 108.5L341.5 81.5L319.5 105.5Z" fill="#f7492f" stroke="#f7492f"></path><path d="M253 218.5L268 225L253.5 197.5Z" fill="#f55329" stroke="#f55329"></path><path d="M289.5 200L310 203.5L301.5 187.5Z" fill="#f7492f" stroke="#f7492f"></path><path d="M234.5 225L268 225L253 218.5Z" fill="#f83939" stroke="#f83939"></path><path d="M275.5 11.5L260 0L259 26Z" fill="#f74432" stroke="#f74432"></path><path d="M101 139L151 131L122 100Z" fill="#f55725" stroke="#f55725"></path><path d="M145 225L175 197.5L158.5 187Z" fill="#f55725" stroke="#f55725"></path><path d="M106.5 96.5L101 139L122 100Z" fill="#f83939" stroke="#f83939"></path><path d="M119.5 192.5L158.5 187L125 171.5Z" fill="#f83f36" stroke="#f83f36"></path><path d="M190 0L175.5 0L171 30Z" fill="#f55725" stroke="#f55725"></path><path d="M160 17.5L125 36.5L136 45Z" fill="#f8333c" stroke="#f8333c"></path><path d="M136 45L103 67.5L122 100Z" fill="#f7492f" stroke="#f7492f"></path><path d="M107.5 35L125 36.5L103 26.5Z" fill="#f55725" stroke="#f55725"></path><path d="M361 99L341.5 81.5L327 108.5Z" fill="#f64e2c" stroke="#f64e2c"></path><path d="M312.5 0L275.5 11.5L296 30.5Z" fill="#f83939" stroke="#f83939"></path><path d="M275.5 11.5L276 1.5L260 0Z" fill="#f26419" stroke="#f26419"></path><path d="M125 36.5L103 67.5L136 45Z" fill="#f74432" stroke="#f74432"></path><path d="M87 133.5L91.5 145L101 139Z" fill="#f74432" stroke="#f74432"></path><path d="M295.5 225L310 203.5L289.5 200Z" fill="#f55725" stroke="#f55725"></path><path d="M115 190.5L125 171.5L112.5 171Z" fill="#f55725" stroke="#f55725"></path><path d="M115 190.5L119.5 192.5L125 171.5Z" fill="#f7492f" stroke="#f7492f"></path><path d="M87 54L98.5 69.5L103 67.5Z" fill="#f74432" stroke="#f74432"></path><path d="M103 67.5L98.5 69.5L106.5 96.5Z" fill="#f64e2c" stroke="#f64e2c"></path><path d="M101 139L98.5 159.5L130 164Z" fill="#f83939" stroke="#f83939"></path><path d="M91.5 145L98.5 159.5L101 139Z" fill="#f26419" stroke="#f26419"></path><path d="M97 165.5L115 190.5L112.5 171Z" fill="#f74432" stroke="#f74432"></path><path d="M119.5 192.5L145 225L158.5 187Z" fill="#f55725" stroke="#f55725"></path><path d="M87 133.5L101 139L106.5 96.5Z" fill="#f74432" stroke="#f74432"></path><path d="M82.5 163L97 165.5L98.5 159.5Z" fill="#f64e2c" stroke="#f64e2c"></path><path d="M98.5 159.5L97 165.5L112.5 171Z" fill="#f7492f" stroke="#f7492f"></path><path d="M119.5 225L145 225L119.5 192.5Z" fill="#f83f36" stroke="#f83f36"></path><path d="M268 225L295.5 225L289.5 200Z" fill="#f8333c" stroke="#f8333c"></path><path d="M87 54L92.5 72L98.5 69.5Z" fill="#f83f36" stroke="#f83f36"></path><path d="M98.5 69.5L92.5 72L106.5 96.5Z" fill="#f7492f" stroke="#f7492f"></path><path d="M77.5 120.5L87 133.5L106.5 96.5Z" fill="#f3601d" stroke="#f3601d"></path><path d="M91.5 145L82.5 163L98.5 159.5Z" fill="#f8333c" stroke="#f8333c"></path><path d="M326.5 206.5L323.5 174L310 203.5Z" fill="#f26419" stroke="#f26419"></path><path d="M326.5 206.5L341.5 173.5L323.5 174Z" fill="#f64e2c" stroke="#f64e2c"></path><path d="M323.5 174L341.5 173.5L311.5 129.5Z" fill="#f83939" stroke="#f83939"></path><path d="M340.5 119L361 99L327 108.5Z" fill="#f8333c" stroke="#f8333c"></path><path d="M334 38L325.5 28.5L322 53.5Z" fill="#f55725" stroke="#f55725"></path><path d="M322 53.5L325.5 28.5L296 30.5Z" fill="#f55725" stroke="#f55725"></path><path d="M341.5 81.5L334 38L322 53.5Z" fill="#f83939" stroke="#f83939"></path><path d="M103 26.5L125 36.5L113.5 8.5Z" fill="#f64e2c" stroke="#f64e2c"></path><path d="M125 36.5L107.5 35L103 67.5Z" fill="#f83f36" stroke="#f83f36"></path><path d="M313 225L326.5 206.5L310 203.5Z" fill="#f8333c" stroke="#f8333c"></path><path d="M380 121.5L361 99L340.5 119Z" fill="#f55725" stroke="#f55725"></path><path d="M367.5 54.5L343.5 33L334 38Z" fill="#f83939" stroke="#f83939"></path><path d="M73.5 86.5L77.5 120.5L106.5 96.5Z" fill="#f55725" stroke="#f55725"></path><path d="M66 150L82.5 163L91.5 145Z" fill="#f26419" stroke="#f26419"></path><path d="M346 202.5L353 169.5L341.5 173.5Z" fill="#f83939" stroke="#f83939"></path><path d="M341.5 173.5L353 169.5L340.5 119Z" fill="#f74432" stroke="#f74432"></path><path d="M295.5 225L313 225L310 203.5Z" fill="#f64e2c" stroke="#f64e2c"></path><path d="M97 165.5L81 178L115 190.5Z" fill="#f55725" stroke="#f55725"></path><path d="M101 222.5L119.5 225L119.5 192.5Z" fill="#f83f36" stroke="#f83f36"></path><path d="M65.5 142L91.5 145L87 133.5Z" fill="#f55725" stroke="#f55725"></path><path d="M107.5 35L87 54L103 67.5Z" fill="#f7492f" stroke="#f7492f"></path><path d="M92.5 72L73.5 86.5L106.5 96.5Z" fill="#f7492f" stroke="#f7492f"></path><path d="M126 0L125 36.5L160 17.5Z" fill="#f55329" stroke="#f55329"></path><path d="M107.5 35L83.5 27.5L87 54Z" fill="#f8333c" stroke="#f8333c"></path><path d="M325.5 28.5L312.5 0L296 30.5Z" fill="#f7492f" stroke="#f7492f"></path><path d="M276 1.5L312.5 0L260 0Z" fill="#f83f36" stroke="#f83f36"></path><path d="M334 0L312.5 0L325.5 28.5Z" fill="#f83f36" stroke="#f83f36"></path><path d="M367.5 54.5L334 38L341.5 81.5Z" fill="#f74432" stroke="#f74432"></path><path d="M334 38L343.5 33L325.5 28.5Z" fill="#f83f36" stroke="#f83f36"></path><path d="M175.5 0L126 0L160 17.5Z" fill="#f26419" stroke="#f26419"></path><path d="M69 77L73.5 86.5L92.5 72Z" fill="#f74432" stroke="#f74432"></path><path d="M101 222.5L119.5 192.5L115 190.5Z" fill="#f7492f" stroke="#f7492f"></path><path d="M386 96.5L366.5 81L361 99Z" fill="#f8333c" stroke="#f8333c"></path><path d="M361 99L366.5 81L341.5 81.5Z" fill="#f8333c" stroke="#f8333c"></path><path d="M126 0L113.5 8.5L125 36.5Z" fill="#f45c21" stroke="#f45c21"></path><path d="M369.5 178L365.5 154L353 169.5Z" fill="#f8333c" stroke="#f8333c"></path><path d="M353 169.5L365.5 154L340.5 119Z" fill="#f83939" stroke="#f83939"></path><path d="M346 202.5L341.5 173.5L326.5 206.5Z" fill="#f55725" stroke="#f55725"></path><path d="M365.5 154L367 151L340.5 119Z" fill="#f83939" stroke="#f83939"></path><path d="M63.5 172.5L81 178L82.5 163Z" fill="#f64e2c" stroke="#f64e2c"></path><path d="M82.5 163L81 178L97 165.5Z" fill="#f64e2c" stroke="#f64e2c"></path><path d="M65.5 142L87 133.5L77.5 120.5Z" fill="#f55329" stroke="#f55329"></path><path d="M342.5 225L346 202.5L326.5 206.5Z" fill="#f3601d" stroke="#f3601d"></path><path d="M365.5 154L392.5 156.5L367 151Z" fill="#f55329" stroke="#f55329"></path><path d="M87 54L69 77L92.5 72Z" fill="#f64e2c" stroke="#f64e2c"></path><path d="M58 130.5L65.5 142L77.5 120.5Z" fill="#f45c21" stroke="#f45c21"></path><path d="M54 58L69 77L87 54Z" fill="#f55725" stroke="#f55725"></path><path d="M83.5 27.5L107.5 35L103 26.5Z" fill="#f64e2c" stroke="#f64e2c"></path><path d="M58 130.5L77.5 120.5L44 98Z" fill="#f3601d" stroke="#f3601d"></path><path d="M65.5 142L66 150L91.5 145Z" fill="#f55329" stroke="#f55329"></path><path d="M366.5 81L367.5 54.5L341.5 81.5Z" fill="#f7492f" stroke="#f7492f"></path><path d="M343.5 33L334 0L325.5 28.5Z" fill="#f3601d" stroke="#f3601d"></path><path d="M376 60.5L367.5 54.5L366.5 81Z" fill="#f8333c" stroke="#f8333c"></path><path d="M63.5 172.5L76.5 183.5L81 178Z" fill="#f8333c" stroke="#f8333c"></path><path d="M81 178L76.5 183.5L115 190.5Z" fill="#f55329" stroke="#f55329"></path><path d="M392.5 156.5L380 121.5L367 151Z" fill="#f8333c" stroke="#f8333c"></path><path d="M367 151L380 121.5L340.5 119Z" fill="#f64e2c" stroke="#f64e2c"></path><path d="M76.5 183.5L101 222.5L115 190.5Z" fill="#f83f36" stroke="#f83f36"></path><path d="M347.5 0L334 0L343.5 33Z" fill="#f83939" stroke="#f83939"></path><path d="M70.5 225L102 225L101 222.5Z" fill="#f64e2c" stroke="#f64e2c"></path><path d="M101 222.5L102 225L119.5 225Z" fill="#f8333c" stroke="#f8333c"></path><path d="M99.5 0L103 26.5L113.5 8.5Z" fill="#f55725" stroke="#f55725"></path><path d="M99.5 0L83.5 27.5L103 26.5Z" fill="#f26419" stroke="#f26419"></path><path d="M346 202.5L369.5 178L353 169.5Z" fill="#f55725" stroke="#f55725"></path><path d="M65.5 142L37 158.5L66 150Z" fill="#f64e2c" stroke="#f64e2c"></path><path d="M66 150L63.5 172.5L82.5 163Z" fill="#f55725" stroke="#f55725"></path><path d="M44 98L77.5 120.5L73.5 86.5Z" fill="#f64e2c" stroke="#f64e2c"></path><path d="M386 96.5L376 60.5L366.5 81Z" fill="#f26419" stroke="#f26419"></path><path d="M367.5 54.5L365.5 28.5L343.5 33Z" fill="#f83939" stroke="#f83939"></path><path d="M313 225L342.5 225L326.5 206.5Z" fill="#f7492f" stroke="#f7492f"></path><path d="M346 202.5L380 184L369.5 178Z" fill="#f45c21" stroke="#f45c21"></path><path d="M126 0L99.5 0L113.5 8.5Z" fill="#f55329" stroke="#f55329"></path><path d="M389 105L361 99L380 121.5Z" fill="#f3601d" stroke="#f3601d"></path><path d="M389 105L386 96.5L361 99Z" fill="#f83939" stroke="#f83939"></path><path d="M37 158.5L63.5 172.5L66 150Z" fill="#f45c21" stroke="#f45c21"></path><path d="M76.5 183.5L70.5 225L101 222.5Z" fill="#f7492f" stroke="#f7492f"></path><path d="M378.5 48L365.5 28.5L367.5 54.5Z" fill="#f8333c" stroke="#f8333c"></path><path d="M411.5 104.5L389 105L380 121.5Z" fill="#f55329" stroke="#f55329"></path><path d="M399 51.5L378.5 48L376 60.5Z" fill="#f55725" stroke="#f55725"></path><path d="M54 58L52.5 86L69 77Z" fill="#f55725" stroke="#f55725"></path><path d="M69 77L52.5 86L73.5 86.5Z" fill="#f55725" stroke="#f55725"></path><path d="M361 16.5L347.5 0L343.5 33Z" fill="#f74432" stroke="#f74432"></path><path d="M365.5 28.5L361 16.5L343.5 33Z" fill="#f26419" stroke="#f26419"></path><path d="M376 60.5L378.5 48L367.5 54.5Z" fill="#f83939" stroke="#f83939"></path><path d="M365.5 28.5L376 31L361 16.5Z" fill="#f64e2c" stroke="#f64e2c"></path><path d="M401.5 92.5L376 60.5L386 96.5Z" fill="#f64e2c" stroke="#f64e2c"></path><path d="M342.5 225L353 225L346 202.5Z" fill="#f26419" stroke="#f26419"></path><path d="M361 16.5L351 0L347.5 0Z" fill="#f74432" stroke="#f74432"></path><path d="M368.5 222.5L380 184L346 202.5Z" fill="#f8333c" stroke="#f8333c"></path><path d="M369.5 178L392.5 156.5L365.5 154Z" fill="#f7492f" stroke="#f7492f"></path><path d="M57.5 35L87 54L83.5 27.5Z" fill="#f45c21" stroke="#f45c21"></path><path d="M57.5 35L54 58L87 54Z" fill="#f7492f" stroke="#f7492f"></path><path d="M378.5 48L376 31L365.5 28.5Z" fill="#f3601d" stroke="#f3601d"></path><path d="M361 16.5L380.5 0L351 0Z" fill="#f55329" stroke="#f55329"></path><path d="M399 51.5L376 31L378.5 48Z" fill="#f64e2c" stroke="#f64e2c"></path><path d="M32 69.5L44 98L52.5 86Z" fill="#f55329" stroke="#f55329"></path><path d="M52.5 86L44 98L73.5 86.5Z" fill="#f83f36" stroke="#f83f36"></path><path d="M58 130.5L37 158.5L65.5 142Z" fill="#f83f36" stroke="#f83f36"></path><path d="M389 177L392.5 156.5L369.5 178Z" fill="#f55329" stroke="#f55329"></path><path d="M406 182.5L389 177L380 184Z" fill="#f45c21" stroke="#f45c21"></path><path d="M380 184L389 177L369.5 178Z" fill="#f83f36" stroke="#f83f36"></path><path d="M70 0L57.5 35L83.5 27.5Z" fill="#f74432" stroke="#f74432"></path><path d="M54 58L32 69.5L52.5 86Z" fill="#f83f36" stroke="#f83f36"></path><path d="M411.5 104.5L401.5 92.5L389 105Z" fill="#f7492f" stroke="#f7492f"></path><path d="M389 105L401.5 92.5L386 96.5Z" fill="#f74432" stroke="#f74432"></path><path d="M353 225L368.5 222.5L346 202.5Z" fill="#f83f36" stroke="#f83f36"></path><path d="M42.5 12.5L49 41.5L57.5 35Z" fill="#f7492f" stroke="#f7492f"></path><path d="M57.5 35L49 41.5L54 58Z" fill="#f64e2c" stroke="#f64e2c"></path><path d="M61 225L76.5 183.5L31 188Z" fill="#f7492f" stroke="#f7492f"></path><path d="M61 225L70.5 225L76.5 183.5Z" fill="#f83f36" stroke="#f83f36"></path><path d="M30.5 156L58 130.5L24.5 108Z" fill="#f55725" stroke="#f55725"></path><path d="M30.5 156L37 158.5L58 130.5Z" fill="#f8333c" stroke="#f8333c"></path><path d="M99.5 0L70 0L83.5 27.5Z" fill="#f55329" stroke="#f55329"></path><path d="M401.5 92.5L399 51.5L376 60.5Z" fill="#f55725" stroke="#f55725"></path><path d="M376 31L380.5 0L361 16.5Z" fill="#f45c21" stroke="#f45c21"></path><path d="M411 153L408.5 142.5L392.5 156.5Z" fill="#f3601d" stroke="#f3601d"></path><path d="M392.5 156.5L408.5 142.5L380 121.5Z" fill="#f3601d" stroke="#f3601d"></path><path d="M401.5 92.5L409.5 45.5L399 51.5Z" fill="#f83939" stroke="#f83939"></path><path d="M408 163.5L392.5 156.5L389 177Z" fill="#f8333c" stroke="#f8333c"></path><path d="M408.5 142.5L411.5 104.5L380 121.5Z" fill="#f74432" stroke="#f74432"></path><path d="M28.5 65L54 58L49 41.5Z" fill="#f45c21" stroke="#f45c21"></path><path d="M28.5 65L32 69.5L54 58Z" fill="#f3601d" stroke="#f3601d"></path><path d="M31 188L76.5 183.5L63.5 172.5Z" fill="#f83f36" stroke="#f83f36"></path><path d="M24.5 108L58 130.5L44 98Z" fill="#f83939" stroke="#f83939"></path><path d="M37 158.5L31 188L63.5 172.5Z" fill="#f7492f" stroke="#f7492f"></path><path d="M406 182.5L408 163.5L389 177Z" fill="#f64e2c" stroke="#f64e2c"></path><path d="M450 110L417.5 99L411.5 104.5Z" fill="#f64e2c" stroke="#f64e2c"></path><path d="M408 163.5L411 153L392.5 156.5Z" fill="#f83f36" stroke="#f83f36"></path><path d="M24.5 70.5L24.5 108L44 98Z" fill="#f3601d" stroke="#f3601d"></path><path d="M394 16.5L380.5 0L376 31Z" fill="#f55725" stroke="#f55725"></path><path d="M0 39L28.5 65L49 41.5Z" fill="#f64e2c" stroke="#f64e2c"></path><path d="M32 69.5L24.5 70.5L44 98Z" fill="#f26419" stroke="#f26419"></path><path d="M408.5 205.5L406 182.5L380 184Z" fill="#f55725" stroke="#f55725"></path><path d="M408 163.5L420.5 175L411 153Z" fill="#f83939" stroke="#f83939"></path><path d="M450 132L411.5 104.5L408.5 142.5Z" fill="#f55329" stroke="#f55329"></path><path d="M411.5 104.5L417.5 99L401.5 92.5Z" fill="#f26419" stroke="#f26419"></path><path d="M399 51.5L394 16.5L376 31Z" fill="#f26419" stroke="#f26419"></path><path d="M70 0L58.5 0L57.5 35Z" fill="#f83f36" stroke="#f83f36"></path><path d="M409.5 45.5L394 16.5L399 51.5Z" fill="#f83939" stroke="#f83939"></path><path d="M0 79.5L24.5 70.5L0 39Z" fill="#f83939" stroke="#f83939"></path><path d="M28.5 65L24.5 70.5L32 69.5Z" fill="#f8333c" stroke="#f8333c"></path><path d="M417.5 99L409.5 45.5L401.5 92.5Z" fill="#f55329" stroke="#f55329"></path><path d="M19.5 164.5L31 188L37 158.5Z" fill="#f64e2c" stroke="#f64e2c"></path><path d="M19.5 164.5L37 158.5L30.5 156Z" fill="#f74432" stroke="#f74432"></path><path d="M58.5 0L42.5 12.5L57.5 35Z" fill="#f74432" stroke="#f74432"></path><path d="M0 122L30.5 156L24.5 108Z" fill="#f83939" stroke="#f83939"></path><path d="M0 144.5L19.5 164.5L30.5 156Z" fill="#f55329" stroke="#f55329"></path><path d="M368.5 222.5L408.5 205.5L380 184Z" fill="#f7492f" stroke="#f7492f"></path><path d="M406 182.5L420.5 175L408 163.5Z" fill="#f74432" stroke="#f74432"></path><path d="M411 153L442.5 145L408.5 142.5Z" fill="#f74432" stroke="#f74432"></path><path d="M408.5 205.5L420.5 175L406 182.5Z" fill="#f74432" stroke="#f74432"></path><path d="M26 207.5L41.5 225L31 188Z" fill="#f8333c" stroke="#f8333c"></path><path d="M31 188L41.5 225L61 225Z" fill="#f74432" stroke="#f74432"></path><path d="M438.5 51L418.5 39.5L409.5 45.5Z" fill="#f83f36" stroke="#f83f36"></path><path d="M409.5 45.5L418.5 39.5L394 16.5Z" fill="#f83f36" stroke="#f83f36"></path><path d="M394 16.5L410.5 0L380.5 0Z" fill="#f7492f" stroke="#f7492f"></path><path d="M426 25L418.5 39.5L438.5 51Z" fill="#f45c21" stroke="#f45c21"></path><path d="M0 109.5L7.5 105.5L0 102Z" fill="#f8333c" stroke="#f8333c"></path><path d="M24.5 70.5L7.5 105.5L24.5 108Z" fill="#f83939" stroke="#f83939"></path><path d="M368.5 222.5L402.5 225L408.5 205.5Z" fill="#f45c21" stroke="#f45c21"></path><path d="M450 167.5L442.5 145L420.5 175Z" fill="#f55329" stroke="#f55329"></path><path d="M353 225L402.5 225L368.5 222.5Z" fill="#f26419" stroke="#f26419"></path><path d="M19.5 164.5L19.5 187.5L31 188Z" fill="#f26419" stroke="#f26419"></path><path d="M2.5 179L19.5 187.5L19.5 164.5Z" fill="#f55725" stroke="#f55725"></path><path d="M19.5 187.5L26 207.5L31 188Z" fill="#f3601d" stroke="#f3601d"></path><path d="M0 102L7.5 105.5L0 79.5Z" fill="#f7492f" stroke="#f7492f"></path><path d="M7.5 105.5L0 122L24.5 108Z" fill="#f83939" stroke="#f83939"></path><path d="M0 109.5L0 122L7.5 105.5Z" fill="#f83939" stroke="#f83939"></path><path d="M0 79.5L7.5 105.5L24.5 70.5Z" fill="#f55329" stroke="#f55329"></path><path d="M58.5 0L30 0L42.5 12.5Z" fill="#f83f36" stroke="#f83f36"></path><path d="M0 28.5L0 39L49 41.5Z" fill="#f55329" stroke="#f55329"></path><path d="M426 25L410.5 0L394 16.5Z" fill="#f55329" stroke="#f55329"></path><path d="M0 122L0 144.5L30.5 156Z" fill="#f26419" stroke="#f26419"></path><path d="M19.5 187.5L0 197.5L26 207.5Z" fill="#f74432" stroke="#f74432"></path><path d="M0 39L24.5 70.5L28.5 65Z" fill="#f64e2c" stroke="#f64e2c"></path><path d="M0 144.5L0 158L19.5 164.5Z" fill="#f64e2c" stroke="#f64e2c"></path><path d="M438.5 51L409.5 45.5L417.5 99Z" fill="#f26419" stroke="#f26419"></path><path d="M418.5 39.5L426 25L394 16.5Z" fill="#f74432" stroke="#f74432"></path><path d="M450 176L420.5 175L450 214.5Z" fill="#f26419" stroke="#f26419"></path><path d="M420.5 175L442.5 145L411 153Z" fill="#f55329" stroke="#f55329"></path><path d="M0 158L2.5 179L19.5 164.5Z" fill="#f83939" stroke="#f83939"></path><path d="M450 75.5L438.5 51L417.5 99Z" fill="#f26419" stroke="#f26419"></path><path d="M450 132L450 110L411.5 104.5Z" fill="#f83f36" stroke="#f83f36"></path><path d="M450 110L450 104.5L417.5 99Z" fill="#f45c21" stroke="#f45c21"></path><path d="M450 167.5L450 132L442.5 145Z" fill="#f3601d" stroke="#f3601d"></path><path d="M442.5 145L450 132L408.5 142.5Z" fill="#f83f36" stroke="#f83f36"></path><path d="M402.5 225L424 225L408.5 205.5Z" fill="#f83f36" stroke="#f83f36"></path><path d="M0 28.5L49 41.5L42.5 12.5Z" fill="#f45c21" stroke="#f45c21"></path><path d="M450 104.5L450 75.5L417.5 99Z" fill="#f64e2c" stroke="#f64e2c"></path><path d="M450 17.5L424 0L426 25Z" fill="#f55725" stroke="#f55725"></path><path d="M426 25L424 0L410.5 0Z" fill="#f64e2c" stroke="#f64e2c"></path><path d="M450 36L426 25L438.5 51Z" fill="#f7492f" stroke="#f7492f"></path><path d="M30 0L14.5 0L42.5 12.5Z" fill="#f3601d" stroke="#f3601d"></path><path d="M0 158L0 197.5L2.5 179Z" fill="#f26419" stroke="#f26419"></path><path d="M2.5 179L0 197.5L19.5 187.5Z" fill="#f45c21" stroke="#f45c21"></path><path d="M26 207.5L0 225L41.5 225Z" fill="#f45c21" stroke="#f45c21"></path><path d="M450 176L450 167.5L420.5 175Z" fill="#f83f36" stroke="#f83f36"></path><path d="M14.5 0L0 28.5L42.5 12.5Z" fill="#f83f36" stroke="#f83f36"></path><path d="M450 214.5L420.5 175L408.5 205.5Z" fill="#f3601d" stroke="#f3601d"></path><path d="M450 75.5L450 36L438.5 51Z" fill="#f64e2c" stroke="#f64e2c"></path><path d="M0 197.5L0 225L26 207.5Z" fill="#f3601d" stroke="#f3601d"></path><path d="M424 225L450 214.5L408.5 205.5Z" fill="#f74432" stroke="#f74432"></path><path d="M14.5 0L0 0L0 28.5Z" fill="#f64e2c" stroke="#f64e2c"></path><path d="M450 36L450 17.5L426 25Z" fill="#f55725" stroke="#f55725"></path><path d="M441.5 225L450 214.5L424 225Z" fill="#f55725" stroke="#f55725"></path><path d="M441.5 225L450 225L450 214.5Z" fill="#f3601d" stroke="#f3601d"></path><path d="M450 17.5L450 0L424 0Z" fill="#f55329" stroke="#f55329"></path></g></svg>